<svg width="16" height="16" viewBox="0 0 16 16" fill="none" xmlns="http://www.w3.org/2000/svg">
<g opacity="0.3">
<path fill-rule="evenodd" clip-rule="evenodd" d="M7.33333 2.75C4.80203 2.75 2.75 4.80203 2.75 7.33333C2.75 9.86464 4.80203 11.9167 7.33333 11.9167C9.86464 11.9167 11.9167 9.86464 11.9167 7.33333C11.9167 4.80203 9.86464 2.75 7.33333 2.75ZM1.25 7.33333C1.25 3.9736 3.9736 1.25 7.33333 1.25C10.6931 1.25 13.4167 3.9736 13.4167 7.33333C13.4167 10.6931 10.6931 13.4167 7.33333 13.4167C3.9736 13.4167 1.25 10.6931 1.25 7.33333Z" fill="#333333"/>
<path fill-rule="evenodd" clip-rule="evenodd" d="M10.5698 10.5696C10.8627 10.2768 11.3375 10.2768 11.6304 10.5696L14.5304 13.4696C14.8233 13.7625 14.8233 14.2374 14.5304 14.5303C14.2375 14.8232 13.7627 14.8232 13.4698 14.5303L10.5698 11.6303C10.2769 11.3374 10.2769 10.8625 10.5698 10.5696Z" fill="#333333"/>
</g>
</svg>
