<svg width="14" height="16" viewBox="0 0 14 16" fill="none" xmlns="http://www.w3.org/2000/svg">
<path d="M0.333374 9.66667C0.333374 8.20833 0.680596 6.90972 1.37504 5.77083C2.06949 4.63194 2.83337 3.67361 3.66671 2.89583C4.50004 2.11806 5.26393 1.52417 5.95837 1.11417L7.00004 0.5V3.25C7.00004 3.76389 7.17365 4.17 7.52087 4.46833C7.8681 4.76667 8.25699 4.91611 8.68754 4.91667C8.92365 4.91667 9.14949 4.86806 9.36504 4.77083C9.5806 4.67361 9.77838 4.51389 9.95837 4.29167L10.3334 3.83333C11.3334 4.41667 12.1389 5.22555 12.75 6.26C13.3612 7.29444 13.6667 8.43 13.6667 9.66667C13.6667 10.8889 13.3681 12.0036 12.7709 13.0108C12.1737 14.0181 11.3889 14.8128 10.4167 15.395C10.6528 15.0617 10.837 14.6969 10.9692 14.3008C11.1014 13.9047 11.1673 13.485 11.1667 13.0417C11.1667 12.4861 11.0625 11.9617 10.8542 11.4683C10.6459 10.975 10.3473 10.5342 9.95837 10.1458L7.00004 7.25L4.06254 10.1458C3.65976 10.5486 3.35421 10.9931 3.14587 11.4792C2.93754 11.9653 2.83337 12.4861 2.83337 13.0417C2.83337 13.4861 2.89949 13.9064 3.03171 14.3025C3.16393 14.6986 3.34782 15.0631 3.58337 15.3958C2.61115 14.8125 1.82643 14.0172 1.22921 13.01C0.631985 12.0028 0.333374 10.8883 0.333374 9.66667ZM7.00004 9.58333L8.77087 11.3125C9.00699 11.5486 9.18754 11.8125 9.31254 12.1042C9.43754 12.3958 9.50004 12.7083 9.50004 13.0417C9.50004 13.7222 9.25699 14.3019 8.77087 14.7808C8.28476 15.2597 7.69449 15.4994 7.00004 15.5C6.3056 15.5 5.71532 15.2603 5.22921 14.7808C4.7431 14.3014 4.50004 13.7217 4.50004 13.0417C4.50004 12.7222 4.56254 12.4131 4.68754 12.1142C4.81254 11.8153 4.9931 11.5481 5.22921 11.3125L7.00004 9.58333Z" fill="#FF8743"/>
</svg>
