<svg width="11" height="10" viewBox="0 0 11 10" fill="none" xmlns="http://www.w3.org/2000/svg">
<path d="M8.71245 1.21248C8.88854 1.04484 9.12286 0.952167 9.36598 0.954006C9.60909 0.955846 9.84198 1.05206 10.0155 1.22234C10.189 1.39263 10.2896 1.62366 10.2961 1.8667C10.3025 2.10974 10.2142 2.34577 10.05 2.52498L5.06245 8.76248C4.97669 8.85486 4.87318 8.92899 4.75812 8.98044C4.64305 9.0319 4.51879 9.05962 4.39277 9.06195C4.26674 9.06429 4.14154 9.04118 4.02465 8.99402C3.90776 8.94686 3.80158 8.87662 3.71245 8.78748L0.404953 5.47998C0.312844 5.39416 0.238967 5.29066 0.187727 5.17566C0.136487 5.06066 0.108934 4.93652 0.106713 4.81064C0.104492 4.68476 0.127648 4.55972 0.1748 4.44299C0.221951 4.32625 0.292132 4.22021 0.381155 4.13119C0.470179 4.04216 0.576221 3.97198 0.692956 3.92483C0.809691 3.87768 0.934728 3.85452 1.06061 3.85674C1.18648 3.85896 1.31063 3.88652 1.42563 3.93776C1.54062 3.989 1.64413 4.06287 1.72995 4.15498L4.34745 6.77123L8.6887 1.23998C8.69652 1.23036 8.70487 1.22118 8.7137 1.21248H8.71245Z" fill="white"/>
</svg>
