<svg width="20" height="20" viewBox="0 0 20 20" fill="none" xmlns="http://www.w3.org/2000/svg">
<path fill-rule="evenodd" clip-rule="evenodd" d="M20.0001 10C20.0001 15.5229 15.5229 20 10.0001 20C4.47721 20 6.10352e-05 15.5229 6.10352e-05 10C6.10352e-05 4.47717 4.47721 1.52588e-05 10.0001 1.52588e-05C15.5229 1.52588e-05 20.0001 4.47717 20.0001 10ZM13.7072 7.70712C14.0977 7.3166 14.0977 6.68343 13.7072 6.29291C13.3166 5.90238 12.6835 5.90238 12.293 6.29291L10.0001 8.5858L7.70717 6.29291C7.31664 5.90238 6.68348 5.90238 6.29295 6.29291C5.90243 6.68343 5.90243 7.3166 6.29295 7.70712L8.58585 10L6.29295 12.2929C5.90243 12.6834 5.90243 13.3166 6.29295 13.7071C6.68348 14.0976 7.31664 14.0976 7.70717 13.7071L10.0001 11.4142L12.293 13.7071C12.6835 14.0976 13.3166 14.0976 13.7072 13.7071C14.0977 13.3166 14.0977 12.6834 13.7072 12.2929L11.4143 10L13.7072 7.70712Z" fill="#333333"/>
</svg>
